name E:\Dropbox\SEL\BOX\Experiment\240124_SUB1_PJH\c3d\XYZ\UpDown_TrcMot\15_10_trial1_U1_ExtLoadAPP2.mot
datacolumns 37
datarows 6
range 2.832 2.837
endheader

time	    ground_force1_vx	    ground_force1_vy	    ground_force1_vz	    ground_force1_px	    ground_force1_py	    ground_force1_pz	    ground_torque1_x	    ground_torque1_y	    ground_torque1_z	    ground_force2_vx	    ground_force2_vy	    ground_force2_vz	    ground_force2_px	    ground_force2_py	    ground_force2_pz	    ground_torque2_x	    ground_torque2_y	    ground_torque2_z	      hand_force3_vx	      hand_force3_vy	      hand_force3_vz	      hand_force3_px	      hand_force3_py	      hand_force3_pz	      hand_torque3_x	      hand_torque3_y	      hand_torque3_z	      hand_force4_vx	      hand_force4_vy	      hand_force4_vz	      hand_force4_px	      hand_force4_py	      hand_force4_pz	      hand_torque4_x	      hand_torque4_y	      hand_torque4_z	
2.832	         43.79742955	        519.91009940	          9.07113799	          0.21931121	          0.00000000	          0.18820326	          0.00000000	         -2.52408617	          0.00000000	        -38.51143785	        505.64954203	          5.85555183	          0.58214867	          0.00000000	          0.18921132	          0.00000000	          0.22259075	          0.00000000	          0.00000000	          0.00000000	          0.00000000	          0.00000000	          0.00000000	          0.00000000	          0.00000000	          0.00000000	          0.00000000	          0.00000000	          0.00000000	          0.00000000	          0.00000000	          0.00000000	          0.00000000	          0.00000000	          0.00000000	          0.00000000	
2.833	         43.69448169	        519.44802561	          8.89856412	          0.21931310	          0.00000000	          0.18811065	          0.00000000	         -2.51855185	          0.00000000	        -38.50216401	        505.53302705	          5.82748407	          0.58213823	          0.00000000	          0.18915823	          0.00000000	          0.22168807	          0.00000000	          0.00000000	          0.00000000	          0.00000000	          0.00000000	          0.00000000	          0.00000000	          0.00000000	          0.00000000	          0.00000000	          0.00000000	          0.00000000	          0.00000000	          0.00000000	          0.00000000	          0.00000000	          0.00000000	          0.00000000	          0.00000000	
2.834	         43.59252101	        518.98345575	          8.72588531	          0.21931462	          0.00000000	          0.18801824	          0.00000000	         -2.51307081	          0.00000000	        -38.49397486	        505.41099069	          5.79798874	          0.58212824	          0.00000000	          0.18910504	          0.00000000	          0.22089420	          0.00000000	          0.00000000	          0.00000000	          0.00000000	          0.00000000	          0.00000000	          0.00000000	          0.00000000	          0.00000000	          0.00000000	          0.00000000	          0.00000000	          0.00000000	          0.00000000	          0.00000000	          0.00000000	          0.00000000	          0.00000000	          0.00000000	
2.835	         43.49166863	        518.51669942	          8.55315109	          0.21931578	          0.00000000	          0.18792614	          0.00000000	         -2.50763798	          0.00000000	        -38.48683336	        505.28345141	          5.76716389	          0.58211870	          0.00000000	          0.18905174	          0.00000000	          0.22021419	          0.00000000	          0.00000000	          0.00000000	          0.00000000	          0.00000000	          0.00000000	          0.00000000	          0.00000000	          0.00000000	          0.00000000	          0.00000000	          0.00000000	          0.00000000	          0.00000000	          0.00000000	          0.00000000	          0.00000000	          0.00000000	          0.00000000	
2.836	         43.39204197	        518.04806418	          8.38041137	          0.21931657	          0.00000000	          0.18783441	          0.00000000	         -2.50224883	          0.00000000	        -38.48070150	        505.15043547	          5.73510701	          0.58210963	          0.00000000	          0.18899831	          0.00000000	          0.21965327	          0.00000000	          0.00000000	          0.00000000	          0.00000000	          0.00000000	          0.00000000	          0.00000000	          0.00000000	          0.00000000	          0.00000000	          0.00000000	          0.00000000	          0.00000000	          0.00000000	          0.00000000	          0.00000000	          0.00000000	          0.00000000	          0.00000000	
2.837	         43.29375432	        517.57785466	          8.20771642	          0.21931700	          0.00000000	          0.18774315	          0.00000000	         -2.49689937	          0.00000000	        -38.47554051	        505.01197664	          5.70191480	          0.58210101	          0.00000000	          0.18894476	          0.00000000	          0.21921676	          0.00000000	          0.00000000	          0.00000000	          0.00000000	          0.00000000	          0.00000000	          0.00000000	          0.00000000	          0.00000000	          0.00000000	          0.00000000	          0.00000000	          0.00000000	          0.00000000	          0.00000000	          0.00000000	          0.00000000	          0.00000000	          0.00000000	
